# xmcd
#
# Track frame offsets:
#	187
#	11862
#	24815
#	41055
#	58090
#	74027
#	92467
#	107347
#	119632
#	131205
#
# Disc length: 1999 seconds
#
# Revision: 2
# Processed by: cddbd v1.5.1PL0 Copyright (c) Steve Scherf et al.
# Submitted via: dBpowerAMP V4.0
#
DISCID=8a07cd0a
DTITLE=Various Artist - CountryClassicsVol4(1984-1985);MCAD31254
DYEAR=1988
DGENRE=country
TTITLE0=Fireman,The(MVickery,WKemp;1985,GeorgeStrait,Pearsall,TX) - GeorgeStrait,Pearsall,TX
TTITLE1=You'veGotAGoodLoveComin'(DMorrison,JSilbar,VStephenson;1985,LeeGreenwood,LosAngeles,CA) - LeeGreenwood,LosAngeles,CA
TTITLE2=CrosswordPuzzle(SDean,FJMyers;1985,BarbaraMandrell,Houston,TX) - BarbaraMandrell,Houston,TX
TTITLE3=TouchySituation(CLester;1985,RazzyBailey,FivePoints,AL) - RazzyBailey,FivePoints,AL
TTITLE4=WhenYouGetALittleLonely(NLarson,JLeo,WWaldman;1985,NicoletteLarson,Helena,MT) - NicoletteLarson,Helena,MT
TTITLE5=Make-UpAndFadedBlueJeans(1985,MerleHaggard,Bakersfield,CA) - MerleHaggard,Bakersfield,CA
TTITLE6=BlueHighway(DHenry,DWomack;1985,JohnConlee,Versailles,KY) - JohnConlee,Versailles,KY
TTITLE7=HeartDon'tDoThisToMe(JWilde,KVassy;1985,LorettaLynn,AKALorettaWebb,ButcherHollow,KY) - LorettaLynn,AKALorettaWebb,ButcherHollow,KY
TTITLE8=WhyNotTonight(CWaters,BJones,TShapiro;1985,Atlanta,Atlanta,GA) - Atlanta,Atlanta,GA
TTITLE9=Maggie'sDream(DaveLoggins,LisaSilver;1985,DonWilliams,Floydada,TX) - DonWilliams,Floydada,TX
EXTD=more info\nMillenniumMusicProjectFormat, syntax as follows:\nTitle{Subtitle}[info](Lyricist;Composer;Date,Artist,Location)[info]\ncorrections to: windking3@yahoo.com
EXTT0=
EXTT1=
EXTT2=
EXTT3=
EXTT4=
EXTT5=
EXTT6=
EXTT7=
EXTT8=
EXTT9=
PLAYORDER=
